<?xml version="1.0" encoding="UTF-8"?>
<svg version="1.1" xmlns="http://www.w3.org/2000/svg" width="512" height="512">
<path d="M0 0 C18.73238199 -0.32753293 37.46418051 -0.5741543 56.19883537 -0.72537041 C64.89850645 -0.79746103 73.59639521 -0.89567402 82.29492188 -1.05615234 C89.87973912 -1.19601683 97.46326557 -1.28608743 105.04933655 -1.31723893 C109.06428096 -1.33544255 113.07553413 -1.37797026 117.08929062 -1.48022079 C143.48779905 -2.12701565 143.48779905 -2.12701565 149.0947876 2.99456787 C151.87920869 6.37749962 153.38450273 9.94964057 155 14 C156.33026858 16.07108988 157.69899031 18.11862911 159.125 20.125 C160.41844827 22.08215707 161.71010395 24.04049996 163 26 C167.24076277 32.4045784 171.48907657 38.78224068 176 45 C181.25449401 52.24268093 186.15802956 59.71060741 191.09960938 67.16894531 C195.54155533 73.85717448 200.09061163 80.43709099 204.8125 86.9296875 C207.82043358 91.15153713 210.62136434 95.49583009 213.40625 99.8671875 C214.19515625 100.92292969 214.19515625 100.92292969 215 102 C215.66 102 216.32 102 217 102 C218.49956971 100.2115381 218.49956971 100.2115381 220.01953125 97.85546875 C220.62297363 96.96061768 221.22641602 96.0657666 221.84814453 95.14379883 C222.49638184 94.16822021 223.14461914 93.1926416 223.8125 92.1875 C225.18076304 90.15349342 226.54925652 88.11964184 227.91796875 86.0859375 C228.60552246 85.05952148 229.29307617 84.03310547 230.00146484 82.97558594 C232.84898781 78.7359561 235.7351427 74.52333319 238.625 70.3125 C239.69027888 68.75663002 240.75538327 67.20064057 241.8203125 65.64453125 C242.34399414 64.87963379 242.86767578 64.11473633 243.40722656 63.32666016 C246.10560377 59.38497795 248.80273174 55.4424411 251.5 51.5 C252.5833275 49.91666268 253.66666083 48.33332934 254.75 46.75 C255.554375 45.574375 255.554375 45.574375 256.375 44.375 C258 42 259.625 39.625 261.25 37.25 C262.0555835 36.07256226 262.0555835 36.07256226 262.87744141 34.87133789 C263.95251985 33.30013162 265.02771372 31.72900431 266.10302734 30.15795898 C268.93864943 26.01474742 271.77180324 21.8698747 274.6015625 17.72265625 C275.19130859 16.85898437 275.78105469 15.9953125 276.38867188 15.10546875 C277.51831829 13.45102597 278.64726228 11.79610329 279.77539062 10.140625 C280.28521484 9.39425781 280.79503906 8.64789063 281.3203125 7.87890625 C281.98957764 6.89772827 281.98957764 6.89772827 282.67236328 5.89672852 C283.32954346 4.9578479 283.32954346 4.9578479 284 4 C284.40140607 3.31080097 284.80281214 2.62160194 285.21638203 1.9115181 C287 -0 287 -0 289.63366222 -0.49219131 C290.70017671 -0.48850414 291.76669119 -0.48481697 292.86552429 -0.48101807 C294.08970062 -0.48651672 295.31387695 -0.49201538 296.57514954 -0.49768066 C297.93381128 -0.48352412 299.29246907 -0.46898488 300.65112305 -0.45410156 C302.08011849 -0.45297342 303.50911626 -0.4536063 304.93811035 -0.45587158 C308.82024275 -0.45702096 312.70188249 -0.43347594 316.58390021 -0.40557575 C320.63979592 -0.38059914 324.69570246 -0.37822306 328.75166321 -0.37347412 C336.43339574 -0.3610333 344.11490102 -0.32819685 351.79653341 -0.28807616 C360.54126544 -0.24339276 369.28600823 -0.22138007 378.03082597 -0.20129442 C396.02067957 -0.15946508 414.01032152 -0.08909166 432 0 C430.7081939 3.32792716 429.39211271 6.118911 427.3046875 9.01953125 C426.76166992 9.78249512 426.21865234 10.54545898 425.65917969 11.33154297 C425.07040039 12.15025879 424.48162109 12.96897461 423.875 13.8125 C418.35915092 21.57720732 413.00489848 29.43147622 407.75 37.375 C402.8617078 44.75478533 397.88542404 52.02279389 392.6875 59.1875 C388.98904532 64.36533655 385.5141441 69.69636554 382 75 C377.02766636 82.5043707 371.97360246 89.90125066 366.6875 97.1875 C362.98904532 102.36533655 359.5141441 107.69636554 356 113 C351.02766636 120.5043707 345.97360246 127.90125066 340.6875 135.1875 C336.25754098 141.38944263 332.12039069 147.79733174 327.91357422 154.15136719 C323.36063527 161.01065054 318.69074489 167.753629 313.8203125 174.390625 C312.30349237 176.56495084 311.14574471 178.6251837 310 181 C311.07636719 181.67804688 312.15273438 182.35609375 313.26171875 183.0546875 C325.32445403 190.71559227 337.20775794 198.47129405 347 209 C347.804375 209.804375 348.60875 210.60875 349.4375 211.4375 C350.283125 212.283125 351.12875 213.12875 352 214 C352.53753906 214.47953125 353.07507813 214.9590625 353.62890625 215.453125 C366.26661771 227.16741287 375.21673912 242.80097814 383 258 C383.50015625 258.97066406 384.0003125 259.94132812 384.515625 260.94140625 C391.01515336 274.41352991 395.1903042 289.34611695 398 304 C398.17805176 304.91007812 398.35610352 305.82015625 398.53955078 306.7578125 C400.2191227 316.30390491 400.3975885 325.712979 400.375 335.375 C400.37478851 336.21082611 400.37457703 337.04665222 400.37435913 337.9078064 C400.33985928 351.60130362 399.37000646 364.67551293 396 378 C395.80744629 378.77520996 395.61489258 379.55041992 395.41650391 380.34912109 C388.03302454 409.24770159 373.02038133 438.51990441 351 459 C350.195625 459.804375 349.39125 460.60875 348.5625 461.4375 C347.716875 462.283125 346.87125 463.12875 346 464 C345.52046875 464.53753906 345.0409375 465.07507813 344.546875 465.62890625 C332.83258713 478.26661771 317.19902186 487.21673912 302 495 C301.02933594 495.50015625 300.05867188 496.0003125 299.05859375 496.515625 C285.58647009 503.01515336 270.65388305 507.1903042 256 510 C254.63488281 510.26707764 254.63488281 510.26707764 253.2421875 510.53955078 C243.69609509 512.2191227 234.287021 512.3975885 224.625 512.375 C223.78917389 512.37478851 222.95334778 512.37457703 222.0921936 512.37435913 C208.39869638 512.33985928 195.32448707 511.37000646 182 508 C181.22479004 507.80744629 180.44958008 507.61489258 179.65087891 507.41650391 C150.75229841 500.03302454 121.48009559 485.02038133 101 463 C99.7934375 461.7934375 99.7934375 461.7934375 98.5625 460.5625 C97.716875 459.716875 96.87125 458.87125 96 458 C95.46246094 457.52046875 94.92492187 457.0409375 94.37109375 456.546875 C81.73338229 444.83258713 72.78326088 429.19902186 65 414 C64.49984375 413.02933594 63.9996875 412.05867188 63.484375 411.05859375 C56.98484664 397.58647009 52.8096958 382.65388305 50 368 C49.82194824 367.08992188 49.64389648 366.17984375 49.46044922 365.2421875 C47.7808773 355.69609509 47.6024115 346.287021 47.625 336.625 C47.62521149 335.78917389 47.62542297 334.95334778 47.62564087 334.0921936 C47.66014072 320.39869638 48.62999354 307.32448707 52 294 C52.19255371 293.22479004 52.38510742 292.44958008 52.58349609 291.65087891 C59.96697546 262.75229841 74.97961867 233.48009559 97 213 C97.804375 212.195625 98.60875 211.39125 99.4375 210.5625 C100.283125 209.716875 101.12875 208.87125 102 208 C102.49113281 207.45085937 102.98226562 206.90171875 103.48828125 206.3359375 C110.31674327 198.97755049 118.74171533 193.61428345 127 188 C122.77865544 181.08080365 118.23535077 174.43117644 113.5625 167.8125 C108.16457949 160.16483725 102.91853736 152.42941202 97.75 144.625 C92.86129157 137.24547991 87.88543682 129.97722372 82.6875 122.8125 C78.24713442 116.59598818 74.10181826 110.17211686 69.8828125 103.8046875 C66.33935254 98.46944024 62.7610007 93.18408205 59 88 C53.73930544 80.74877237 48.83039714 73.27170639 43.8828125 65.8046875 C40.33935254 60.46944024 36.7610007 55.18408205 33 50 C27.74949588 42.76281864 22.84651208 35.30241007 17.91357422 27.84643555 C13.37610302 21.00666597 8.71156688 14.29778927 3.8203125 7.70703125 C2.11297462 5.16800733 1.08106404 2.84322821 0 0 Z " fill="#EC9C5C" transform="translate(40,0)"/>
<path d="M0 0 C18.73238199 -0.32753293 37.46418051 -0.5741543 56.19883537 -0.72537041 C64.89850645 -0.79746103 73.59639521 -0.89567402 82.29492188 -1.05615234 C89.87973912 -1.19601683 97.46326557 -1.28608743 105.04933655 -1.31723893 C109.06428096 -1.33544255 113.07553413 -1.37797026 117.08929062 -1.48022079 C143.48779905 -2.12701565 143.48779905 -2.12701565 149.0947876 2.99456787 C151.87920869 6.37749962 153.38450273 9.94964057 155 14 C156.33026858 16.07108988 157.69899031 18.11862911 159.125 20.125 C160.41844827 22.08215707 161.71010395 24.04049996 163 26 C167.24076277 32.4045784 171.48907657 38.78224068 176 45 C181.25449401 52.24268093 186.15802956 59.71060741 191.09960938 67.16894531 C195.54155533 73.85717448 200.09061163 80.43709099 204.8125 86.9296875 C207.82043358 91.15153713 210.62136434 95.49583009 213.40625 99.8671875 C214.19515625 100.92292969 214.19515625 100.92292969 215 102 C215.66 102 216.32 102 217 102 C218.49956971 100.2115381 218.49956971 100.2115381 220.01953125 97.85546875 C220.62297363 96.96061768 221.22641602 96.0657666 221.84814453 95.14379883 C222.49638184 94.16822021 223.14461914 93.1926416 223.8125 92.1875 C225.18076304 90.15349342 226.54925652 88.11964184 227.91796875 86.0859375 C228.60552246 85.05952148 229.29307617 84.03310547 230.00146484 82.97558594 C232.84898781 78.7359561 235.7351427 74.52333319 238.625 70.3125 C239.69027888 68.75663002 240.75538327 67.20064057 241.8203125 65.64453125 C242.34399414 64.87963379 242.86767578 64.11473633 243.40722656 63.32666016 C246.10560377 59.38497795 248.80273174 55.4424411 251.5 51.5 C252.5833275 49.91666268 253.66666083 48.33332934 254.75 46.75 C255.554375 45.574375 255.554375 45.574375 256.375 44.375 C258 42 259.625 39.625 261.25 37.25 C262.0555835 36.07256226 262.0555835 36.07256226 262.87744141 34.87133789 C263.95251985 33.30013162 265.02771372 31.72900431 266.10302734 30.15795898 C268.93864943 26.01474742 271.77180324 21.8698747 274.6015625 17.72265625 C275.19130859 16.85898437 275.78105469 15.9953125 276.38867188 15.10546875 C277.51831829 13.45102597 278.64726228 11.79610329 279.77539062 10.140625 C280.28521484 9.39425781 280.79503906 8.64789063 281.3203125 7.87890625 C281.98957764 6.89772827 281.98957764 6.89772827 282.67236328 5.89672852 C283.32954346 4.9578479 283.32954346 4.9578479 284 4 C284.40140607 3.31080097 284.80281214 2.62160194 285.21638203 1.9115181 C287 -0 287 -0 289.63366222 -0.49219131 C290.70017671 -0.48850414 291.76669119 -0.48481697 292.86552429 -0.48101807 C294.08970062 -0.48651672 295.31387695 -0.49201538 296.57514954 -0.49768066 C297.93381128 -0.48352412 299.29246907 -0.46898488 300.65112305 -0.45410156 C302.08011849 -0.45297342 303.50911626 -0.4536063 304.93811035 -0.45587158 C308.82024275 -0.45702096 312.70188249 -0.43347594 316.58390021 -0.40557575 C320.63979592 -0.38059914 324.69570246 -0.37822306 328.75166321 -0.37347412 C336.43339574 -0.3610333 344.11490102 -0.32819685 351.79653341 -0.28807616 C360.54126544 -0.24339276 369.28600823 -0.22138007 378.03082597 -0.20129442 C396.02067957 -0.15946508 414.01032152 -0.08909166 432 0 C430.7081939 3.32792716 429.39211271 6.118911 427.3046875 9.01953125 C426.76166992 9.78249512 426.21865234 10.54545898 425.65917969 11.33154297 C425.07040039 12.15025879 424.48162109 12.96897461 423.875 13.8125 C418.35915092 21.57720732 413.00489848 29.43147622 407.75 37.375 C402.8617078 44.75478533 397.88542404 52.02279389 392.6875 59.1875 C388.98904532 64.36533655 385.5141441 69.69636554 382 75 C377.02766636 82.5043707 371.97360246 89.90125066 366.6875 97.1875 C362.98904532 102.36533655 359.5141441 107.69636554 356 113 C351.02766636 120.5043707 345.97360246 127.90125066 340.6875 135.1875 C336.98904293 140.3653399 333.51421708 145.69640966 330 151 C323.24703575 161.18904297 316.36565556 171.24108727 309 181 C304.16174753 179.49300333 299.57870837 177.86115941 295 175.6875 C283.85456334 170.51339125 272.02644398 166.51599246 260 164 C259.08605469 163.80664062 258.17210937 163.61328125 257.23046875 163.4140625 C248.216996 161.71247667 239.14805904 161.29854665 230 161 C229.20529297 160.97131836 228.41058594 160.94263672 227.59179688 160.91308594 C196.01658219 159.90645076 167.66346973 167.72456327 139.80224609 182.07470703 C137.21212434 183.40450403 134.60633977 184.70234423 132 186 C131.21625 186.391875 130.4325 186.78375 129.625 187.1875 C128.820625 187.5896875 128.820625 187.5896875 128 188 C123.45607458 182.37689229 119.31965123 176.58131951 115.34765625 170.54296875 C112.55427323 166.30586963 109.68235286 162.12302039 106.8125 157.9375 C106.25739746 157.12748535 105.70229492 156.3174707 105.13037109 155.48291016 C103.98897329 153.81773141 102.84736993 152.15269354 101.70556641 150.48779297 C98.96743822 146.4938728 96.23388595 142.49682464 93.5 138.5 C92.41669002 136.91665069 91.33335666 135.33331738 90.25 133.75 C31.75 48.24999999 31.75 48.24999999 30.12402344 45.87353516 C29.04399202 44.29505268 27.96391412 42.716602 26.88378906 41.13818359 C24.12454852 37.10589575 21.36619363 33.07300663 18.609375 29.0390625 C18.05145264 28.22300537 17.49353027 27.40694824 16.91870117 26.56616211 C15.81938351 24.95795767 14.72057517 23.34940494 13.62231445 21.74047852 C11.16303305 18.14177924 8.69341493 14.55195985 6.18359375 10.98828125 C5.75852539 10.38290527 5.33345703 9.7775293 4.89550781 9.15380859 C3.77148005 7.55681684 2.64182359 5.96379087 1.51171875 4.37109375 C0 2 0 2 0 0 Z " fill="#E1574B" transform="translate(40,0)"/>
<path d="M0 0 C1.77491821 0.00845947 1.77491821 0.00845947 3.58569336 0.01708984 C38.35649178 0.49629441 70.02375507 16.04968897 94.39550781 40.52709961 C118.75514738 65.85621801 129.29225471 99.65387272 129.11254883 134.27368164 C128.34247728 168.27878659 111.19037221 200.16776894 87.03515625 223.3984375 C73.27748765 236.1424717 56.41992098 245.12553295 38.63964844 250.73535156 C37.07892525 251.22834323 35.52672328 251.74817641 33.9765625 252.2734375 C23.09788783 255.82925026 11.88227177 256.68250697 0.5 256.625 C-1.27201782 256.61654053 -1.27201782 256.61654053 -3.07983398 256.60791016 C-37.31830922 256.13371256 -68.86703156 240.10500443 -92.77050781 216.09790039 C-106.28316067 202.04746326 -115.77771734 184.62613319 -121.61035156 166.13964844 C-122.10334323 164.57892525 -122.62317641 163.02672328 -123.1484375 161.4765625 C-126.70425026 150.59788783 -127.55750697 139.38227177 -127.5 128 C-127.49436035 126.81865479 -127.4887207 125.63730957 -127.48291016 124.42016602 C-127.00871256 90.18169078 -110.98000443 58.63296844 -86.97290039 34.72949219 C-63.96369742 12.60097266 -31.7811834 -0.15992257 0 0 Z M-73.1875 66.3125 C-82.72830842 78.08626358 -89.14137781 91.7988795 -93.1875 106.3125 C-93.43371094 107.18648438 -93.67992187 108.06046875 -93.93359375 108.9609375 C-99.52542039 133.41071743 -92.82045846 159.44283431 -80.27880859 180.58447266 C-77.35985548 185.20647493 -73.86994512 189.28955482 -70.1875 193.3125 C-69.4553125 194.11429688 -68.723125 194.91609375 -67.96875 195.7421875 C-55.25811081 209.03465173 -38.74222397 217.41304596 -21.1875 222.3125 C-20.32511719 222.55871094 -19.46273437 222.80492187 -18.57421875 223.05859375 C5.52172939 228.63102195 30.19098073 222.37768313 51.1875 210.375 C74.03140122 195.91102234 89.34979943 173.69641024 95.5625 147.5 C100.2271534 122.14077933 95.1582075 97.33716899 81.3984375 75.60546875 C65.84014881 53.1110957 43.15608837 37.82190243 16.15625 32.85546875 C-17.81242753 28.04482973 -50.36956549 40.84529219 -73.1875 66.3125 Z " fill="#D58D54" transform="translate(263.1875,207.6875)"/>
<path d="M0 0 C1.06651448 0.00368717 2.13302896 0.00737434 3.23186207 0.01117325 C4.4560384 0.00567459 5.68021473 0.00017593 6.94148731 -0.00548935 C8.30014905 0.00866719 9.65880685 0.02320643 11.01746082 0.03808975 C12.44645627 0.0392179 13.87545403 0.03858501 15.30444813 0.03631973 C19.18658053 0.03517035 23.06822026 0.05871537 26.95023799 0.08661556 C31.0061337 0.11159218 35.06204024 0.11396825 39.11800098 0.11871719 C46.79973351 0.13115802 54.4812388 0.16399446 62.16287118 0.20411515 C70.90760321 0.24879855 79.65234601 0.27081124 88.39716375 0.29089689 C106.38701735 0.33272623 124.3766593 0.40309966 142.36633778 0.49219131 C141.07453168 3.82011847 139.75845048 6.61110232 137.67102528 9.51172256 C137.1280077 10.27468643 136.58499012 11.0376503 136.02551746 11.82373428 C135.14234852 13.05180801 135.14234852 13.05180801 134.24133778 14.30469131 C128.72548869 22.06939864 123.37123626 29.92366753 118.11633778 37.86719131 C113.22804558 45.24697665 108.25176182 52.51498521 103.05383778 59.67969131 C99.35538309 64.85752787 95.88048188 70.18855686 92.36633778 75.49219131 C87.39400413 82.99656202 82.33994024 90.39344198 77.05383778 97.67969131 C73.35538309 102.85752787 69.88048188 108.18855686 66.36633778 113.49219131 C61.39400413 120.99656202 56.33994024 128.39344198 51.05383778 135.67969131 C47.3553807 140.85753122 43.88055485 146.18860097 40.36633778 151.49219131 C33.61337352 161.68123428 26.73199334 171.73327859 19.36633778 181.49219131 C14.5280853 179.98519464 9.94504615 178.35335073 5.36633778 176.17969131 C0.72890921 174.03536501 -3.95708377 172.16537865 -8.75866222 170.42969131 C-9.48102062 170.16180801 -10.20337902 169.89392471 -10.94762707 169.61792374 C-14.64671713 168.30682806 -18.06154413 167.3510395 -21.97741222 166.99609756 C-27.68617939 166.3988647 -32.44762759 165.70339587 -36.62682629 161.47607803 C-40.88432628 156.11852864 -44.38472053 150.2955512 -47.86803722 144.41650772 C-50.52241148 140.02020036 -53.448101 135.82847483 -56.38366222 131.61719131 C-57.43413788 130.07750613 -58.48363239 128.53715105 -59.53209972 126.99609756 C-61.62649631 123.93541351 -63.75940113 120.90686355 -65.92272472 117.89453506 C-66.44253918 117.16283096 -66.96235363 116.43112686 -67.49792004 115.67724991 C-68.47894156 114.29893686 -69.4699659 112.92766914 -70.47252941 111.56494522 C-73.68921676 107.02056477 -73.68921676 107.02056477 -73.43200207 104.57422256 C-72.47934608 102.08974237 -71.22844529 100.14542705 -69.71178722 97.95703506 C-68.80178967 96.63409439 -68.80178967 96.63409439 -67.87340832 95.28442764 C-67.21679211 94.34236465 -66.5601759 93.40030167 -65.88366222 92.42969131 C-65.20771008 91.44960098 -64.53175793 90.46951065 -63.83532238 89.45972061 C-62.44186807 87.43939139 -61.04618376 85.42059849 -59.64831066 83.40332413 C-56.75047822 79.21600541 -53.87995734 75.01022644 -51.00866222 70.80469131 C-49.94379734 69.24853797 -48.87869354 67.69254807 -47.81334972 66.13672256 C-44.58581878 61.42254121 -41.35964888 56.70742953 -38.13366222 51.99219131 C-37.05033472 50.40885399 -35.96700139 48.82552065 -34.88366222 47.24219131 C-34.34741222 46.45844131 -33.81116222 45.67469131 -33.25866222 44.86719131 C-31.63366222 42.49219131 -30.00866222 40.11719131 -28.38366222 37.74219131 C-27.84660656 36.95723282 -27.3095509 36.17227432 -26.75622082 35.36352921 C-25.68114238 33.79232293 -24.60594851 32.22119563 -23.53063488 30.6501503 C-20.69501279 26.50693874 -17.86185898 22.36206601 -15.03209972 18.21484756 C-14.14748058 16.91933975 -14.14748058 16.91933975 -13.24499035 15.59766006 C-12.11534394 13.94321729 -10.98639995 12.2882946 -9.8582716 10.63281631 C-9.34844738 9.88644913 -8.83862316 9.14008194 -8.31334972 8.37109756 C-7.86717297 7.71697891 -7.42099621 7.06286026 -6.96129894 6.38891983 C-6.52317883 5.76299942 -6.08505871 5.13707901 -5.63366222 4.49219131 C-5.23225616 3.80299229 -4.83085009 3.11379326 -4.4172802 2.40370941 C-2.63366222 0.49219131 -2.63366222 0.49219131 0 0 Z " fill="#BF392C" transform="translate(329.6336622238159,-0.4921913146972656)"/>
</svg>
